<?xml version="1.0" encoding="UTF-8"?><svg id="Layer_1" xmlns="http://www.w3.org/2000/svg" viewBox="0 0 558.56569 261.95794"><defs><style>.cls-1{fill:#fff;stroke-width:0px;}</style></defs><path class="cls-1" d="m356.56569,83.46768v93.7h-17.70001v-42.89999l-29.29999,41.7h-.20001l-28.20001-39v40.2h-17.10001v-93.7h.10001l45.60001,64.7,46.70001-64.7h.10001Z"/><path class="cls-1" d="m460.7657,85.26768v17.10001h-43.70001v19.2h38.60001v17.10001h-38.60001v19.39999h45.39999v17.2h-63.10001v-90h61.40002Z"/><path class="cls-1" d="m558.56569,85.26768v17.10001h-21.90002v72.89999h-17.70001v-72.89999h-21v-17.10001h60.60004Z"/><path class="cls-1" d="m237.2657,55.36769C199.9657,14.36769,134.9657,2.76769,88.5657,32.96769c-33,20.9-53.6,59.50001-53.3,98.1-.4,55.8,41.90001,107.7,98.3,114.2,38.3,4.79999,76.8-10,103.7-38.70001l-2.7,3.89999c-4.10001,5.89999-9,11.5-14.10001,16.5-10.5,10.29999-23.10001,18.60001-36.5,24.5C88.66569,291.06767-14.83431,213.06767,1.7657,109.46766,15.56569,24.76768,109.06569-23.43232,186.16569,11.46768c20.7,9.4,38.7,24.9,51.10001,43.90001h0Z"/><path class="cls-1" d="m165.46568,79.86769c-27.8,0-50.39999,22.60001-50.39999,50.39999s22.60001,50.39999,50.39999,50.39999,50.39999-22.60001,50.39999-50.39999c.00002-27.89999-22.59999-50.39999-50.39999-50.39999Zm15.10001,65.5l-15.10001,30.2-15.10001-30.2-30.19998-15.10001,30.2-15.10001,15.10001-30.2,15.10001,30.2,30.2,15.10001-30.20001,15.10001Z"/></svg>