<?xml version="1.0" encoding="UTF-8"?><svg id="Layer_1" xmlns="http://www.w3.org/2000/svg" viewBox="0 0 498.08984 498.08984"><defs><style>.cls-1{fill:#fff;}.cls-1,.cls-2,.cls-3{stroke-width:0px;}.cls-2{fill:#6c499e;}.cls-3{fill:#020015;}</style></defs><path class="cls-3" d="m249.04492,8.55072C116.22363,8.55072,8.55072,116.22363,8.55072,249.04492s107.67291,240.49414,240.4942,240.49414V8.55072Z"/><path class="cls-2" d="m249.04492,8.55072v480.98834c132.82129,0,240.4942-107.67291,240.4942-240.49414S381.86621,8.55072,249.04492,8.55072Z"/><path class="cls-1" d="m425.14648,72.94336C378.10742,25.90527,315.56738,0,249.04492,0S119.98193,25.90527,72.94336,72.94336C25.90527,119.98193,0,182.52246,0,249.04492s25.90527,129.0625,72.94336,176.10156c47.03857,47.03809,109.5791,72.94336,176.10156,72.94336s129.0625-25.90527,176.10156-72.94336c47.03809-47.03906,72.94336-109.5791,72.94336-176.10156s-25.90527-129.06299-72.94336-176.10156Zm-176.10156,406.31781c-126.94147,0-230.21625-103.27484-230.21625-230.21625S122.10345,18.82867,249.04492,18.82867s230.21625,103.27478,230.21625,230.21625-103.27478,230.21625-230.21625,230.21625Z"/></svg>