<?xml version="1.0" encoding="UTF-8"?><svg id="Layer_1" xmlns="http://www.w3.org/2000/svg" viewBox="0 0 200 200"><defs><style>.cls-1{fill:#ec5e8c;}.cls-1,.cls-2{stroke-width:0px;}.cls-3{opacity:.2;}.cls-4,.cls-2{fill:#fff;}.cls-4,.cls-5,.cls-6{stroke:#fff;stroke-linecap:round;stroke-miterlimit:10;stroke-width:2px;}.cls-5{fill:none;}.cls-6{fill:#ed1c24;}</style></defs><g id="earbud"><g class="cls-3"><path class="cls-4" d="m87.45443,162.35418c1.05446.45072,9.03233,4.15193,16.02755.62031,6.88016-3.47353,9.73631-12.43865,8.15241-20.01016-1.94219-9.28421-11.08199-12.58818-11.63032-12.77584"/><ellipse class="cls-6" cx="75.56568" cy="140.08165" rx="29.05819" ry="22.28973" transform="translate(-82.27976 160.52321) rotate(-69.03474)"/></g><path class="cls-4" d="m59.90494,161.71217c.4855,1.0389,3.96468,9.11607,11.5331,11.14696,7.44393,1.99748,15.54935-2.78091,19.41621-9.48046,4.74155-8.21501.13148-16.77067-.15213-17.27609"/><path class="cls-6" d="m94.947,124.22368c13.66238-8.08799,48.27863-74.43083-4.11113-101.54174-29.17716-12.62879-56.85144,7.90874-63.38287,31.34687-2.4597,8.82666-3.99961,22.33975,2.66552,26.09762,13.10736,3.57351,11.1079-14.19952,12.66304-24.64117,5.33191-26.21521,30.99821-29.05848,45.32121-22.21628,34.87956,16.66221,15.10707,70.20344.55087,79.71366"/><path class="cls-5" d="m94.25885,108.71878s5.61855,4.26386,7.14283,8.52773"/><ellipse class="cls-6" cx="70.02244" cy="136.43315" rx="29.05819" ry="22.28973" transform="translate(-76.2788 90.46477) rotate(-45.38855)"/><ellipse class="cls-1" cx="70.02244" cy="136.43315" rx="19.02361" ry="14.59249" transform="translate(-76.2788 90.46477) rotate(-45.38855)"/><path class="cls-2" d="m78.87507,137.59425c.79839-3.99885-1.39159-7.72496-5.25757-8.30003-2.7149-.44033-5.93877.66921-8.23528,2.77476-3.35681,3.00405-4.58561,7.83172-2.47203,10.87168,1.41218,2.08528,4.0061,3.11821,6.91709,2.84525l-.35318.08262c-.53498.12426-1.0875.19414-1.61299.22198-1.08225.05764-2.138-.09315-3.08562-.41209-6.59823-2.39618-6.52313-11.55444.41284-16.37616,5.68076-3.9312,12.71374-2.08672,14.04635,3.47836.35599,1.49575.22715,3.19331-.35961,4.81362h0Z"/><path class="cls-2" d="m74.60483,136.02154c-1.16877-2.05623-4.36103-1.85645-6.18292.38694-1.01244,1.24666-1.26179,2.88824-.6123,4.03089,1.16877,2.05623,4.36103,1.85645,6.18292-.38694,1.01244-1.24666,1.26179-2.88824.6123-4.03089Zm-3.63119,3.74661l-2.47717.91656,1.13716-2.35577-.43642-2.25729,2.24359.62113,2.47717-.91656-1.13716,2.35577.43643,2.2573-2.24359-.62113Z"/></g><path class="cls-5" d="m109.98005,180.31501c-.9047.2903-1.9923.56007-3.23714.71529-2.14671.26766-3.98945.09845-5.34123-.14095.94971-.78531,2.02245-1.78902,3.09785-3.04526,1.16974-1.36642,2.04834-2.68782,2.70215-3.8224"/><path class="cls-5" d="m126.73521,154.11155c-.58145,4.6551-2.51709,9.98853-7.62919,15.49605-5.96407,6.42537-13.31943,9.59114-17.26764,11.36416"/><path class="cls-2" d="m133.73242,115.83066c1.08008.58984,1.93066,1.40918,2.55078,2.45996.61914,1.0498.92969,2.24512.92969,3.58496,0,1.93945-.46484,3.7002-1.39551,5.2793-.92969,1.58105-2.0752,2.95508-3.43457,4.125-1.36035,1.1709-3.03027,2.40527-5.00977,3.70508l-1.9502-2.15918c1.74023-.87988,3.25-1.8252,4.53027-2.83594,1.2793-1.00879,2.25-2.01465,2.90918-3.01465-.93945.76074-2.16992,1.13965-3.68945,1.13965-1.02051,0-1.98535-.27441-2.89551-.82422s-1.64453-1.2998-2.2041-2.25c-.56055-.9502-.84082-2.01465-.84082-3.19531,0-1.35938.32031-2.56543.95996-3.61523.64062-1.0498,1.48535-1.85938,2.53516-2.42969s2.18555-.85547,3.40527-.85547c1.32031,0,2.51953.2959,3.59961.88574Zm-6.34473,8.71484c.76953.74023,1.72461,1.10938,2.86523,1.10938,1.15918,0,2.11523-.34473,2.86523-1.03418.75-.69043,1.125-1.56543,1.125-2.625v-.57031c-.04102-1.05957-.44043-1.96484-1.2002-2.71484-.76074-.75-1.69043-1.125-2.79004-1.125-1.14062,0-2.0957.37988-2.86523,1.13965-.77051.76074-1.15527,1.74023-1.15527,2.94043,0,1.17969.38477,2.13965,1.15527,2.87988Z"/><path class="cls-2" d="m143.28711,133.47031c-1.25-.80957-2.22461-1.97461-2.9248-3.49512-.7002-1.51953-1.0498-3.2998-1.0498-5.33984,0-3.25977.73535-5.74512,2.20508-7.45508s3.49512-2.55469,6.0752-2.53516c1.62012,0,3.05469.40039,4.30469,1.2002s2.22461,1.95996,2.9248,3.48047c.7002,1.51953,1.0498,3.29004,1.0498,5.30957,0,2.08008-.34961,3.87988-1.0498,5.40039-.7002,1.51953-1.6748,2.67969-2.9248,3.47949s-2.68457,1.18945-4.30469,1.16992c-1.62012,0-3.05566-.40527-4.30566-1.21484Zm8.19043-3.55469c.91016-1.32031,1.375-3.10059,1.39453-5.33984-.01953-2.17969-.48438-3.91504-1.39453-5.20508s-2.21582-1.93555-3.91504-1.93555c-1.67969,0-2.96973.65039-3.87012,1.9502s-1.36035,3.0498-1.37988,5.25c.01953,2.21973.47949,3.98535,1.37988,5.29492.90039,1.31055,2.19043,1.96484,3.87012,1.96484,1.69922,0,3.00488-.66016,3.91504-1.97949Z"/><path class="cls-2" d="m158.96191,115.41074c.60059-.58984,1.33008-.88574,2.19043-.88574.83984,0,1.55469.2959,2.14453.88574s.88574,1.31445.88574,2.1748c0,.83984-.2959,1.55469-.88574,2.14453-.58984.59082-1.30469.88477-2.14453.88477-.86035,0-1.58984-.29395-2.19043-.88477-.59961-.58984-.89941-1.30469-.89941-2.14453,0-.86035.2998-1.58496.89941-2.1748Zm3.25488,3.22461c.29004-.28027.43555-.62988.43555-1.0498,0-.40039-.15039-.74512-.4502-1.03516s-.65039-.43555-1.0498-.43555c-.40039,0-.74512.14551-1.03516.43555s-.43457.63477-.43457,1.03516c0,.41992.14453.76953.43457,1.0498s.63477.41992,1.03516.41992c.41992,0,.77441-.13965,1.06445-.41992Z"/></svg>