<?xml version="1.0" encoding="UTF-8"?><svg id="Layer_1" xmlns="http://www.w3.org/2000/svg" viewBox="0 0 200 200"><defs><style>.cls-1{fill:#ec5e8c;}.cls-1,.cls-2{stroke-width:0px;}.cls-3,.cls-4,.cls-5,.cls-6{stroke-linecap:round;stroke-miterlimit:10;stroke-width:2px;}.cls-3,.cls-2{fill:#fff;}.cls-3,.cls-5,.cls-6{stroke:#fff;}.cls-4{stroke:red;}.cls-4,.cls-5{fill:none;}.cls-6{fill:#ed1c24;}</style></defs><g id="ear"><path class="cls-5" d="m178.96914,60.91408s-4.19668-37.55827-43.85223-31.15817c-24.31106,3.92362-37.3898,29.31176-39.23621,44.39077-1.74012,14.21098-5.47644,43.42778,23.84946,68.16329,16.29464,13.74404,26.31134,34.00471,46.16024,30.61963,14.11498-2.40721,18.9257-16.30995,18.9257-16.30995"/><path class="cls-5" d="m154.50421,87.22542s4.61602-4.46216,7.38564-11.69393c5.50303-14.36902,1.40576-29.15937-13.38647-32.46604-10.32477-2.30801-24.77266,1.23094-35.08179,24.6188-11.28973,25.61253-3.23122,51.39174,12.92487,62.77793"/><path class="cls-5" d="m157.8893,73.83895c-7.38565,1.84641-15.46812,4.84418-23.54173,12.77101-21.56709,23.54172-1.89764,39.23621,21.23371,39.23621,10.92459,0,9.1761,16.49462,22.77239,4.76989"/><path class="cls-5" d="m157.88929,98.76548s12.53919-12.12341,9.69365,8.77045c-1.23094,9.0384-2.74471,12.32131,3.62982,14.05981,6.77017,1.84641,7.75637,4.25042,7.75637,4.25042"/></g><path id="noise" class="cls-4" d="m10.67853,102.36646h9.1267c2.91547,0,3.66625,7.34955,6.58172,7.34955,2.59857,0,4.6332-8.68304,7.23177-8.68304,2.47182,0,2.91355,6.73684,5.38536,6.73684,1.52112,0,4.30829-15.10297,6.92404-15.10297,3.10561,0,3.81842,17.04917,6.92404,17.04917,3.23953,0,3.0244-9.15868,6.6163-8.68304,3.13913.41568,3.32357,8.89842,6.70866,9.05229,2.76961,0,2.98499-8.89383,5.75461-8.4012h15.27893"/><g id="earbud"><path class="cls-3" d="m157.20246,119.71831s5.45672,2.89663,9.14954.89636v-8.78488l-9.14954,7.88852Z"/><path class="cls-6" d="m174.35311,47.52761s9.30646,34.81281-21.69532,46.92958c-32.41004,12.66718,8.92431,6.04475,8.92431,6.04475,0,0,15.65738-5.92267,18.9498-26.39556,3.51064-21.82979-6.1788-26.57877-6.1788-26.57877Z"/><ellipse class="cls-6" cx="149.99797" cy="103.15673" rx="16.95396" ry="18.06925" transform="translate(-26.20689 57.41234) rotate(-19.96388)"/><ellipse class="cls-1" cx="149.99797" cy="103.15673" rx="11.0993" ry="11.82945" transform="translate(-26.20689 57.41234) rotate(-19.96388)"/><path class="cls-2" d="m155.20696,99.64331c-1.85969-2.04417-5.10045-2.62252-7.41384-1.11681-1.6453,1.04203-2.67237,2.96653-2.65742,4.89104-.01994,2.78206,2.08904,5.36968,4.90101,5.69375,1.90955.23932,3.82907-.49858,5.17025-1.92949l-.13462.19444c-.20442.29416-.44872.57336-.70299.82265-.52351.51353-1.15171.92735-1.81981,1.22151-4.75144,1.97437-9.91172-1.91454-9.08408-7.0798.68804-4.22295,5.34973-6.62609,9.19376-4.88606,1.03205.46866,1.92949,1.24146,2.54773,2.18875h0Z"/><path class="cls-2" d="m151.62718,100.86482c-1.38604,0-2.51283,1.12678-2.51283,2.51283s1.12678,2.51283,2.51283,2.51283,2.51283-1.12678,2.51283-2.51283c0-1.39103-1.12678-2.51283-2.51283-2.51283Zm.75285,3.26568l-.75285,1.5057-.75285-1.5057-1.5057-.75285,1.5057-.75285.75285-1.5057.75285,1.5057,1.5057.75285-1.5057.75285Z"/><path class="cls-5" d="m166.82538,86.46281s3.85948,2.85061,4.96186,5.13293"/></g></svg>