<?xml version="1.0" encoding="UTF-8"?><svg id="Layer_1" xmlns="http://www.w3.org/2000/svg" viewBox="0 0 200 200"><defs><style>.cls-1{fill:#ec5e8c;}.cls-1,.cls-2{stroke-width:0px;}.cls-3,.cls-4,.cls-5,.cls-6{stroke:#fff;stroke-miterlimit:10;stroke-width:2px;}.cls-3,.cls-2{fill:#fff;}.cls-3,.cls-5,.cls-6{stroke-linecap:round;}.cls-4{fill:red;opacity:.2;}.cls-5{fill:none;}.cls-6{fill:#ed1c24;}</style></defs><g id="earbud"><path class="cls-3" d="m109.34086,168.86921c.87193.49682,7.44348,4.50848,13.79563,2.14179,6.24766-2.32776,9.49625-9.82621,8.78679-16.55876-.86995-8.25548-8.48012-12.03844-8.93761-12.25623"/><path class="cls-4" d="m128.49209,130.8549c10.14578-10.85738,23.45562-78.11017-31.16447-86.85987-29.7515-2.73195-49.17934,22.86186-48.73811,45.01717.16616,8.34356,2.42964,20.4904,9.46199,21.87119,12.79767-.59282,6.18759-15.4357,4.76828-24.92447-2.27482-24.22479,20.12443-33.91569,34.90315-32.01744,35.98933,4.62265,32.61725,56.59963,22.04918,68.94147"/><path class="cls-4" d="m126.52012,130.8549c13.69899-5.75823,53.35056-61.68536,7.08619-92.00895-26.03203-14.66112-54.22833.74838-62.88703,21.1464-3.26082,7.68178-6.16326,19.69197-.31071,23.82817,11.92082,4.69317,11.95948-11.55499,14.54514-20.79434,7.83188-23.03642,32.23555-22.71864,44.94532-14.94204,30.95101,18.93768,6.61571,64.9895-8.07577,71.92965"/><path class="cls-6" d="m121.69427,137.24509c12.94307-7.66216,45.7368-70.51211-3.89468-96.19566-27.64101-11.9639-53.85826,7.49235-60.04581,29.69648-2.33019,8.36195-3.78903,21.16358,2.52518,24.7236,12.41727,3.38536,10.52308-13.45192,11.99634-23.34383,5.05119-24.835,29.36618-27.52858,42.93508-21.04661,33.04318,15.78496,14.3117,66.50729.52187,75.5168"/><ellipse class="cls-6" cx="99.14693" cy="145.43555" rx="23.98887" ry="25.56694" transform="translate(-43.69778 42.591) rotate(-19.96388)"/><ellipse class="cls-1" cx="99.14693" cy="145.43555" rx="15.70487" ry="16.73799" transform="translate(-43.69778 42.591) rotate(-19.96388)"/><path class="cls-2" d="m106.51735,140.46425c-2.63136-2.89238-7.21683-3.71071-10.49016-1.58023-2.32801,1.47441-3.78125,4.19747-3.76009,6.92054-.02822,3.93646,2.95587,7.59778,6.93465,8.05633,2.7019.33862,5.41792-.70546,7.3156-2.73012l-.19047.27513c-.28924.41622-.63491.81128-.9947,1.16401-.74073.72662-1.62961,1.31215-2.57492,1.72837-6.72301,2.79361-14.0245-2.70896-12.85344-10.0175.97353-5.97523,7.56956-9.37553,13.00864-6.91349,1.4603.66313,2.73012,1.75659,3.60489,3.09696h0Z"/><path class="cls-2" d="m102.14872,142.25915c-2.50156-.47702-4.66256,1.68398-4.18553,4.18554.26509,1.39013,1.40229,2.52733,2.79242,2.79242,2.50156.47702,4.66256-1.68398,4.18553-4.18554-.26509-1.39013-1.40229-2.52733-2.79242-2.79242Zm.36869,4.55422l-1.06524,2.13048-1.06524-2.13048-2.13048-1.06524,2.13048-1.06524,1.06524-2.13048,1.06524,2.13048,2.13048,1.06524-2.13048,1.06524Z"/><path class="cls-5" d="m121.04234,122.55651s5.32274,4.03938,6.76677,8.07875"/></g><path class="cls-5" d="m26.28302,59.43999c-.489,1.8889-.91444,4.15036-1.08657,6.72076-.29681,4.43261.26638,8.19076.91585,10.93408,1.49858-2.03926,3.43051-4.3564,5.87984-6.70864,2.66415-2.55857,5.27019-4.51497,7.51957-5.98857"/><path class="cls-5" d="m78.03909,22.0131c-9.47568,1.73844-20.18314,6.33284-30.87471,17.46009-12.47338,12.98169-18.1006,28.43324-21.27229,36.73597"/><path class="cls-5" d="m170.66088,113.44875c-1.91519,1.6542-4.31474,3.48277-7.22651,5.23029-3.16715,1.90082-6.14352,3.22755-8.66464,4.16305"/><path class="cls-5" d="m166.56168,130.62195c.89749-1.73251,1.816-3.84238,2.55637-6.30985,1.27676-4.25512,1.56487-8.04429,1.54282-10.86336"/><path class="cls-5" d="m141.75723,145.43555c15.05175-9.87695,23.97955-23.68675,28.92104-31.07435"/></svg>