<?xml version="1.0" encoding="UTF-8"?><svg id="Layer_1" xmlns="http://www.w3.org/2000/svg" viewBox="0 0 200 200"><defs><style>.cls-1{fill:none;}.cls-1,.cls-2,.cls-3,.cls-4{stroke:#fff;stroke-miterlimit:10;}.cls-1,.cls-2,.cls-4{stroke-width:2px;}.cls-5{stroke-width:0px;}.cls-5,.cls-3{fill:#fff;}.cls-2{fill:#c3f200;}.cls-4{fill:#ed1c24;stroke-linecap:round;}</style></defs><rect class="cls-4" x="30.43477" y="100.01246" width="94.8293" height="69.16539" rx="34.58266" ry="34.58266"/><rect class="cls-2" x="113.24928" y="41.17021" width="25.98976" height="50.56775" rx="5.54314" ry="5.54314"/><line class="cls-1" x1="30.45834" y1="133.43982" x2="124.32031" y2="133.43982"/><circle class="cls-1" cx="73.93199" cy="140.35249" r=".40338"/><circle class="cls-1" cx="80.84666" cy="140.35249" r=".40338"/><polygon class="cls-3" points="124.80036 78.00448 124.80036 69.34168 117.58136 69.34168 127.68796 54.90369 127.68796 63.56649 134.90695 63.56649 124.80036 78.00448"/><rect class="cls-3" x="120.9782" y="37.08511" width="10.53191" height="5.15706"/><path class="cls-5" d="m154.30273,58.26425v19.74023h-2.94043v-16.9502h-2.25v-2.79004h5.19043Z"/><path class="cls-5" d="m170.44141,66.13925c.76074.69043,1.15039,1.58594,1.1709,2.68555v9.17969h-2.82031v-8.21973c-.04004-.7002-.25-1.25-.62988-1.65039-.38086-.39941-.9502-.60938-1.70996-.62988-.7207,0-1.37012.2002-1.9502.59961-.58008.40039-1.03516.95996-1.36523,1.68066-.33008.71973-.49512,1.51953-.49512,2.39941v5.82031h-2.79004v-23.25h2.73047v13.08008c.45996-.82031,1.125-1.47949,1.99512-1.98047.87012-.49902,1.86426-.75,2.98438-.75,1.16016,0,2.12012.3457,2.87988,1.03516Z"/><path class="cls-5" d="m180.50684,66.72421c.58984-.51953,1.21484-.91895,1.875-1.2002.66016-.2793,1.23926-.42969,1.74023-.44922l-.12012,2.79004c-.90039-.04004-1.71582.13965-2.44531.54004-.73047.40039-1.2998.95508-1.70996,1.66504s-.61523,1.46484-.61523,2.26465v5.66992h-2.79004v-12.41992h2.49023l.20996,2.93945c.31934-.67969.77539-1.2793,1.36523-1.7998Z"/><path class="cls-5" d="m84.12343,113.26373c-1.88941-2.07683-5.18195-2.66442-7.53231-1.13466-1.6716,1.05868-2.71508,3.01394-2.69988,4.9692-.02026,2.82652,2.12242,5.45548,4.97933,5.78474,1.94006.24314,3.89026-.50654,5.25286-1.96033l-.13677.19755c-.20768.29886-.45589.58253-.71423.8358-.53187.52174-1.17012.94217-1.84889,1.24103-4.82737,2.00592-10.0701-1.94513-9.22924-7.19293.69903-4.29043,5.43522-6.73197,9.34068-4.96413,1.04855.47615,1.96033,1.2613,2.58844,2.22373h0Z"/><path class="cls-5" d="m80.98659,114.55253c-1.79621-.34252-3.34789,1.20916-3.00536,3.00537.19034.99816,1.0069,1.81472,2.00506,2.00506,1.79621.34252,3.34789-1.20916,3.00536-3.00537-.19034-.99816-1.0069-1.81472-2.00506-2.00506Zm.26473,3.2701l-.76488,1.52976-.76488-1.52976-1.52976-.76488,1.52976-.76488.76488-1.52976.76488,1.52976,1.52976.76488-1.52976.76488Z"/></svg>