<?xml version="1.0" encoding="UTF-8"?><svg id="Layer_1" xmlns="http://www.w3.org/2000/svg" viewBox="0 0 487.10889 487.10889"><defs><style>.cls-1{fill:#00aeef;}.cls-1,.cls-2{stroke-width:0px;}.cls-2{fill:none;}</style></defs><path class="cls-1" d="m242.91164,297.22663c-13.21857,0-25.29713-4.78541-34.58125-12.68192l-61.23116,122.08262c28.11755,16.71216,60.95146,26.32037,96.03426,26.32037s67.91676-9.60821,96.03431-26.32037l-61.36436-122.34813c-9.3243,8.05514-21.52546,12.94743-34.8918,12.94743Z"/><path class="cls-1" d="m189.90276,244.91882c0-23.1775,15.28241-42.82144,36.44175-49.68778l-63.07496-121.024c-64.03199,30.04607-108.37986,95.08727-108.37986,170.49687,0,10.56021.88383,20.9125,2.55524,30.99879l133.70226-19.52587c-.80669-3.62755-1.24443-7.39141-1.24443-11.258Z"/><path class="cls-1" d="m322.99741,74.20704l-63.14074,121.15021c20.96261,6.97693,36.06384,26.52256,36.06384,49.56157,0,3.84421-.43217,7.58716-1.2298,11.19539l134.13137,19.58854c1.67141-10.08628,2.55524-20.43863,2.55524-30.99884,0-75.4096-44.34792-140.4508-108.37992-170.49687Z"/><ellipse class="cls-1" cx="243.13351" cy="243.77796" rx="30.07903" ry="29.68123"/><circle class="cls-2" cx="243.55421" cy="243.5542" r="233.55426"/><path class="cls-1" d="m243.5542,487.10889c-65.05566,0-126.21729-25.33398-172.21875-71.33594C25.33398,369.77197,0,308.60986,0,243.5542S25.33398,117.33691,71.33545,71.33545,178.49854,0,243.5542,0s126.21777,25.33398,172.21875,71.33545c46.00195,46.00146,71.33594,107.16309,71.33594,172.21875s-25.33398,126.21777-71.33594,172.21875c-46.00098,46.00195-107.16309,71.33594-172.21875,71.33594Zm0-467.10889C120.28613,20,20,120.28613,20,243.5542s100.28613,223.55469,223.5542,223.55469,223.55469-100.28613,223.55469-223.55469S366.82275,20,243.5542,20Z"/></svg>