<?xml version="1.0" encoding="UTF-8"?><svg id="Layer_1" xmlns="http://www.w3.org/2000/svg" viewBox="0 0 296.97406 48.28489"><defs><style>.cls-1{fill:#fff;stroke-width:0px;}</style></defs><polygon class="cls-1" points="25.32375 .11624 33.14922 15.97238 50.64751 18.51503 37.98563 30.85731 40.9747 48.28489 25.32375 40.0567 9.67281 48.28489 12.66188 30.85731 0 18.51503 17.49828 15.97238 25.32375 .11624"/><polygon class="cls-1" points="86.90539 .03875 94.73086 15.89488 112.22915 18.43753 99.56727 30.77981 102.55633 48.20739 86.90539 39.9792 71.25445 48.20739 74.24352 30.77981 61.58164 18.43753 79.07992 15.89488 86.90539 .03875"/><polygon class="cls-1" points="148.48703 .0775 156.3125 15.93363 173.81078 18.47628 161.14891 30.81856 164.13797 48.24614 148.48703 40.01795 132.83609 48.24614 135.82515 30.81856 123.16328 18.47628 140.66156 15.93363 148.48703 .0775"/><polygon class="cls-1" points="210.06867 0 217.89414 15.85614 235.39242 18.39878 222.73055 30.74106 225.71961 48.16864 210.06867 39.94046 194.41773 48.16864 197.40679 30.74106 184.74491 18.39878 202.2432 15.85614 210.06867 0"/><polygon class="cls-1" points="271.65031 .11624 279.47578 15.97238 296.97406 18.51503 284.31218 30.85731 287.30125 48.28489 271.65031 40.0567 255.99937 48.28489 258.98843 30.85731 246.32655 18.51503 263.82484 15.97238 271.65031 .11624"/></svg>